<svg id="visual" viewBox="0 0 900 600" width="900" height="600" xmlns="http://www.w3.org/2000/svg" xmlns:xlink="http://www.w3.org/1999/xlink" version="1.1"><g stroke-width="1" stroke-linejoin="bevel"><path d="M454 352.9L558 404.6L510 331.9Z" fill="#277297" stroke="#277297"></path><path d="M454 352.9L446 438.6L558 404.6Z" fill="#297ea6" stroke="#297ea6"></path><path d="M559 529.3L592 431.6L558 404.6Z" fill="#081a28" stroke="#081a28"></path><path d="M558 404.6L631 380.9L510 331.9Z" fill="#246688" stroke="#246688"></path><path d="M592 431.6L631 380.9L558 404.6Z" fill="#277297" stroke="#277297"></path><path d="M454 352.9L373 453.6L446 438.6Z" fill="#081a28" stroke="#081a28"></path><path d="M446 438.6L559 529.3L558 404.6Z" fill="#1d4e6b" stroke="#1d4e6b"></path><path d="M426 233.1L364 326.9L454 352.9Z" fill="#246688" stroke="#246688"></path><path d="M454 352.9L364 326.9L373 453.6Z" fill="#1d4e6b" stroke="#1d4e6b"></path><path d="M481 546.3L559 529.3L446 438.6Z" fill="#205a7a" stroke="#205a7a"></path><path d="M592 431.6L681 445.6L631 380.9Z" fill="#19435d" stroke="#19435d"></path><path d="M384 533.3L481 546.3L446 438.6Z" fill="#19435d" stroke="#19435d"></path><path d="M631 380.9L541 239.1L510 331.9Z" fill="#246688" stroke="#246688"></path><path d="M510 331.9L426 233.1L454 352.9Z" fill="#081a28" stroke="#081a28"></path><path d="M541 239.1L426 233.1L510 331.9Z" fill="#205a7a" stroke="#205a7a"></path><path d="M373 453.6L384 533.3L446 438.6Z" fill="#15384f" stroke="#15384f"></path><path d="M638 552.3L681 445.6L592 431.6Z" fill="#205a7a" stroke="#205a7a"></path><path d="M631 380.9L668 260.1L541 239.1Z" fill="#205a7a" stroke="#205a7a"></path><path d="M541 239.1L457 202.4L426 233.1Z" fill="#19435d" stroke="#19435d"></path><path d="M543 600L638 552.3L559 529.3Z" fill="#205a7a" stroke="#205a7a"></path><path d="M559 529.3L638 552.3L592 431.6Z" fill="#00101c" stroke="#00101c"></path><path d="M696 290.1L668 260.1L631 380.9Z" fill="#112e42" stroke="#112e42"></path><path d="M541 239.1L509 131.4L457 202.4Z" fill="#1d4e6b" stroke="#1d4e6b"></path><path d="M447 600L543 600L481 546.3Z" fill="#277297" stroke="#277297"></path><path d="M481 546.3L543 600L559 529.3Z" fill="#205a7a" stroke="#205a7a"></path><path d="M384 533.3L447 600L481 546.3Z" fill="#0c2435" stroke="#0c2435"></path><path d="M714 331.9L696 290.1L631 380.9Z" fill="#00101c" stroke="#00101c"></path><path d="M681 445.6L714 331.9L631 380.9Z" fill="#19435d" stroke="#19435d"></path><path d="M394 154.4L360 218.1L426 233.1Z" fill="#00101c" stroke="#00101c"></path><path d="M426 233.1L360 218.1L364 326.9Z" fill="#00101c" stroke="#00101c"></path><path d="M364 326.9L273 400.6L373 453.6Z" fill="#246688" stroke="#246688"></path><path d="M373 453.6L262 551.3L384 533.3Z" fill="#112e42" stroke="#112e42"></path><path d="M237 364.9L273 400.6L364 326.9Z" fill="#112e42" stroke="#112e42"></path><path d="M360 218.1L305 261.1L364 326.9Z" fill="#112e42" stroke="#112e42"></path><path d="M262 551.3L384 600L384 533.3Z" fill="#19435d" stroke="#19435d"></path><path d="M384 533.3L384 600L447 600Z" fill="#19435d" stroke="#19435d"></path><path d="M684 145.4L646 198.4L775 197.4Z" fill="#15384f" stroke="#15384f"></path><path d="M668 260.1L646 198.4L541 239.1Z" fill="#246688" stroke="#246688"></path><path d="M457 202.4L394 154.4L426 233.1Z" fill="#1d4e6b" stroke="#1d4e6b"></path><path d="M264 179.4L218 270.1L305 261.1Z" fill="#00101c" stroke="#00101c"></path><path d="M509 131.4L394 154.4L457 202.4Z" fill="#246688" stroke="#246688"></path><path d="M646 198.4L509 131.4L541 239.1Z" fill="#246688" stroke="#246688"></path><path d="M305 261.1L237 364.9L364 326.9Z" fill="#081a28" stroke="#081a28"></path><path d="M273 400.6L262 551.3L373 453.6Z" fill="#19435d" stroke="#19435d"></path><path d="M543 600L668 600L638 552.3Z" fill="#246688" stroke="#246688"></path><path d="M638 552.3L723 540.3L681 445.6Z" fill="#081a28" stroke="#081a28"></path><path d="M681 445.6L812 432.6L714 331.9Z" fill="#15384f" stroke="#15384f"></path><path d="M668 600L723 540.3L638 552.3Z" fill="#00101c" stroke="#00101c"></path><path d="M205 461.6L262 551.3L273 400.6Z" fill="#1d4e6b" stroke="#1d4e6b"></path><path d="M804 600L770 508.3L723 540.3Z" fill="#246688" stroke="#246688"></path><path d="M723 540.3L770 508.3L681 445.6Z" fill="#15384f" stroke="#15384f"></path><path d="M237 364.9L205 461.6L273 400.6Z" fill="#205a7a" stroke="#205a7a"></path><path d="M775 197.4L646 198.4L668 260.1Z" fill="#297ea6" stroke="#297ea6"></path><path d="M646 198.4L659 93.7L509 131.4Z" fill="#246688" stroke="#246688"></path><path d="M775 197.4L668 260.1L696 290.1Z" fill="#15384f" stroke="#15384f"></path><path d="M775 197.4L696 290.1L816 263.1Z" fill="#081a28" stroke="#081a28"></path><path d="M305 261.1L218 270.1L237 364.9Z" fill="#19435d" stroke="#19435d"></path><path d="M237 364.9L143 344.9L205 461.6Z" fill="#246688" stroke="#246688"></path><path d="M264 179.4L305 261.1L360 218.1Z" fill="#0c2435" stroke="#0c2435"></path><path d="M546 55.7L475 79.7L509 131.4Z" fill="#277297" stroke="#277297"></path><path d="M509 131.4L475 79.7L394 154.4Z" fill="#112e42" stroke="#112e42"></path><path d="M394 154.4L264 179.4L360 218.1Z" fill="#297ea6" stroke="#297ea6"></path><path d="M770 508.3L812 432.6L681 445.6Z" fill="#205a7a" stroke="#205a7a"></path><path d="M668 600L737 600L723 540.3Z" fill="#277297" stroke="#277297"></path><path d="M770 508.3L900 498.3L812 432.6Z" fill="#15384f" stroke="#15384f"></path><path d="M278 77.7L264 179.4L394 154.4Z" fill="#297ea6" stroke="#297ea6"></path><path d="M205 461.6L212 536.3L262 551.3Z" fill="#246688" stroke="#246688"></path><path d="M262 551.3L246 600L384 600Z" fill="#246688" stroke="#246688"></path><path d="M218 600L246 600L262 551.3Z" fill="#277297" stroke="#277297"></path><path d="M816 263.1L696 290.1L714 331.9Z" fill="#112e42" stroke="#112e42"></path><path d="M680 76.7L659 93.7L684 145.4Z" fill="#246688" stroke="#246688"></path><path d="M684 145.4L659 93.7L646 198.4Z" fill="#112e42" stroke="#112e42"></path><path d="M812 432.6L832 327.9L714 331.9Z" fill="#19435d" stroke="#19435d"></path><path d="M659 93.7L546 55.7L509 131.4Z" fill="#246688" stroke="#246688"></path><path d="M832 327.9L816 263.1L714 331.9Z" fill="#112e42" stroke="#112e42"></path><path d="M212 536.3L218 600L262 551.3Z" fill="#277297" stroke="#277297"></path><path d="M475 79.7L365 60.7L394 154.4Z" fill="#246688" stroke="#246688"></path><path d="M445 0L365 60.7L475 79.7Z" fill="#205a7a" stroke="#205a7a"></path><path d="M93 255.1L143 344.9L218 270.1Z" fill="#0c2435" stroke="#0c2435"></path><path d="M218 270.1L143 344.9L237 364.9Z" fill="#297ea6" stroke="#297ea6"></path><path d="M205 461.6L78 484.3L212 536.3Z" fill="#1d4e6b" stroke="#1d4e6b"></path><path d="M212 536.3L110 600L218 600Z" fill="#1d4e6b" stroke="#1d4e6b"></path><path d="M818 77.7L680 76.7L684 145.4Z" fill="#297ea6" stroke="#297ea6"></path><path d="M590 0L568 0L546 55.7Z" fill="#00101c" stroke="#00101c"></path><path d="M737 600L804 600L723 540.3Z" fill="#112e42" stroke="#112e42"></path><path d="M812 432.6L900 396.6L832 327.9Z" fill="#0c2435" stroke="#0c2435"></path><path d="M365 60.7L278 77.7L394 154.4Z" fill="#081a28" stroke="#081a28"></path><path d="M264 179.4L155 172.4L218 270.1Z" fill="#246688" stroke="#246688"></path><path d="M143 344.9L113 404.6L205 461.6Z" fill="#19435d" stroke="#19435d"></path><path d="M568 0L445 0L546 55.7Z" fill="#081a28" stroke="#081a28"></path><path d="M546 55.7L445 0L475 79.7Z" fill="#1d4e6b" stroke="#1d4e6b"></path><path d="M365 60.7L332 0L278 77.7Z" fill="#081a28" stroke="#081a28"></path><path d="M590 0L546 55.7L659 93.7Z" fill="#1d4e6b" stroke="#1d4e6b"></path><path d="M900 498.3L900 396.6L812 432.6Z" fill="#1d4e6b" stroke="#1d4e6b"></path><path d="M832 327.9L900 272.1L816 263.1Z" fill="#112e42" stroke="#112e42"></path><path d="M816 263.1L900 174.4L775 197.4Z" fill="#15384f" stroke="#15384f"></path><path d="M680 76.7L590 0L659 93.7Z" fill="#00101c" stroke="#00101c"></path><path d="M900 396.6L900 344.9L832 327.9Z" fill="#205a7a" stroke="#205a7a"></path><path d="M818 77.7L704 0L680 76.7Z" fill="#15384f" stroke="#15384f"></path><path d="M153 83.7L155 172.4L264 179.4Z" fill="#081a28" stroke="#081a28"></path><path d="M143 344.9L81 347.9L113 404.6Z" fill="#0c2435" stroke="#0c2435"></path><path d="M804 600L900 498.3L770 508.3Z" fill="#081a28" stroke="#081a28"></path><path d="M900 344.9L900 272.1L832 327.9Z" fill="#19435d" stroke="#19435d"></path><path d="M93 255.1L81 347.9L143 344.9Z" fill="#246688" stroke="#246688"></path><path d="M113 404.6L78 484.3L205 461.6Z" fill="#297ea6" stroke="#297ea6"></path><path d="M445 0L332 0L365 60.7Z" fill="#297ea6" stroke="#297ea6"></path><path d="M109 109.7L123 174.4L155 172.4Z" fill="#19435d" stroke="#19435d"></path><path d="M155 172.4L93 255.1L218 270.1Z" fill="#205a7a" stroke="#205a7a"></path><path d="M0 410.6L78 484.3L113 404.6Z" fill="#112e42" stroke="#112e42"></path><path d="M153 83.7L264 179.4L278 77.7Z" fill="#081a28" stroke="#081a28"></path><path d="M155 172.4L123 174.4L93 255.1Z" fill="#081a28" stroke="#081a28"></path><path d="M818 77.7L684 145.4L775 197.4Z" fill="#205a7a" stroke="#205a7a"></path><path d="M680 76.7L704 0L590 0Z" fill="#00101c" stroke="#00101c"></path><path d="M332 0L294 0L278 77.7Z" fill="#00101c" stroke="#00101c"></path><path d="M78 484.3L110 600L212 536.3Z" fill="#19435d" stroke="#19435d"></path><path d="M900 174.4L818 77.7L775 197.4Z" fill="#246688" stroke="#246688"></path><path d="M804 600L900 600L900 498.3Z" fill="#297ea6" stroke="#297ea6"></path><path d="M900 272.1L900 174.4L816 263.1Z" fill="#19435d" stroke="#19435d"></path><path d="M183 0L153 83.7L278 77.7Z" fill="#081a28" stroke="#081a28"></path><path d="M0 165.4L0 285.1L93 255.1Z" fill="#297ea6" stroke="#297ea6"></path><path d="M80 0L109 109.7L153 83.7Z" fill="#112e42" stroke="#112e42"></path><path d="M153 83.7L109 109.7L155 172.4Z" fill="#297ea6" stroke="#297ea6"></path><path d="M0 305.9L0 410.6L81 347.9Z" fill="#00101c" stroke="#00101c"></path><path d="M900 0L799 0L818 77.7Z" fill="#1d4e6b" stroke="#1d4e6b"></path><path d="M818 77.7L799 0L704 0Z" fill="#19435d" stroke="#19435d"></path><path d="M81 347.9L0 410.6L113 404.6Z" fill="#00101c" stroke="#00101c"></path><path d="M78 484.3L0 600L110 600Z" fill="#112e42" stroke="#112e42"></path><path d="M0 305.9L81 347.9L93 255.1Z" fill="#00101c" stroke="#00101c"></path><path d="M900 174.4L900 85.7L818 77.7Z" fill="#1d4e6b" stroke="#1d4e6b"></path><path d="M294 0L183 0L278 77.7Z" fill="#246688" stroke="#246688"></path><path d="M0 285.1L0 305.9L93 255.1Z" fill="#277297" stroke="#277297"></path><path d="M0 410.6L0 486.3L78 484.3Z" fill="#081a28" stroke="#081a28"></path><path d="M0 165.4L93 255.1L123 174.4Z" fill="#0c2435" stroke="#0c2435"></path><path d="M0 486.3L0 600L78 484.3Z" fill="#00101c" stroke="#00101c"></path><path d="M109 109.7L0 165.4L123 174.4Z" fill="#277297" stroke="#277297"></path><path d="M0 55.7L0 165.4L109 109.7Z" fill="#112e42" stroke="#112e42"></path><path d="M900 85.7L900 0L818 77.7Z" fill="#1d4e6b" stroke="#1d4e6b"></path><path d="M183 0L80 0L153 83.7Z" fill="#297ea6" stroke="#297ea6"></path><path d="M80 0L0 55.7L109 109.7Z" fill="#297ea6" stroke="#297ea6"></path><path d="M80 0L0 0L0 55.7Z" fill="#297ea6" stroke="#297ea6"></path></g></svg>